<svg xmlns="http://www.w3.org/2000/svg" xmlns:xlink="http://www.w3.org/1999/xlink" width="128" zoomAndPan="magnify" viewBox="0 0 96 95.999999" height="128" preserveAspectRatio="xMidYMid meet" version="1.2"><defs><clipPath id="db1e8ae9a5"><path d="M 7.261719 23 L 89 23 L 89 54 L 7.261719 54 Z M 7.261719 23 "/></clipPath><clipPath id="31d2159b78"><path d="M 7.261719 15 L 89.011719 15 L 89.011719 61 L 7.261719 61 Z M 7.261719 15 "/></clipPath><clipPath id="6fa4605438"><path d="M 7.261719 36 L 89 36 L 89 54 L 7.261719 54 Z M 7.261719 36 "/></clipPath></defs><g id="8686355c1d"><path style=" stroke:none;fill-rule:nonzero;fill:#f9c6c1;fill-opacity:1;" d="M 12.433594 45.074219 C 12.433594 45.074219 11.753906 55.234375 12.433594 66.066406 C 13.113281 76.902344 13.792969 86.382812 15.289062 88.007812 C 16.78125 89.632812 31.597656 95.996094 55.515625 93.5625 C 79.433594 91.121094 82.289062 86.519531 83.101562 84.757812 C 83.917969 82.996094 86.773438 51.710938 83.101562 41.6875 C 79.433594 31.667969 15.695312 38.4375 12.433594 45.074219 "/><path style=" stroke:none;fill-rule:nonzero;fill:#f37857;fill-opacity:1;" d="M 83.101562 41.6875 C 79.433594 31.667969 15.695312 38.4375 12.433594 45.074219 C 12.433594 45.074219 11.753906 55.234375 12.433594 66.066406 C 13.113281 76.902344 13.792969 86.382812 15.289062 88.007812 C 15.910156 88.683594 18.851562 90.183594 23.789062 91.523438 C 26.5625 86.898438 30.988281 78.203125 31.355469 71.277344 C 31.867188 61.5625 20.113281 47.160156 19.996094 47.015625 C 19.308594 46.183594 19.433594 44.957031 20.265625 44.273438 C 21.101562 43.589844 22.335938 43.710938 23.019531 44.542969 C 23.542969 45.183594 35.851562 60.277344 35.261719 71.484375 C 34.949219 77.40625 32.148438 84.070312 29.855469 88.617188 C 29.101562 90.105469 28.386719 91.40625 27.773438 92.46875 C 31.867188 93.304688 36.882812 93.953125 42.734375 94.082031 C 47.648438 86.851562 56.339844 73.550781 57.644531 69.15625 C 58.667969 65.71875 49.007812 57.019531 45.371094 53.746094 C 42.011719 50.722656 41.3125 50.089844 41.3125 48.886719 C 41.3125 47.808594 42.1875 46.9375 43.269531 46.9375 C 44.074219 46.9375 44.765625 47.421875 45.066406 48.113281 C 45.472656 48.585938 46.808594 49.785156 47.996094 50.855469 C 55.644531 57.746094 62.984375 64.917969 61.394531 70.265625 C 59.984375 75.011719 52.066406 87.203125 47.453125 94.074219 C 50.011719 94.007812 52.695312 93.847656 55.515625 93.5625 C 62.113281 92.886719 67.101562 92.050781 70.894531 91.152344 C 71.144531 90.488281 71.429688 89.730469 71.707031 88.980469 C 73.328125 84.621094 75.777344 78.03125 77.992188 73.367188 C 80.003906 69.132812 72.765625 56.300781 66.984375 48.542969 C 66.339844 47.679688 66.523438 46.460938 67.390625 45.816406 C 68.257812 45.175781 69.480469 45.355469 70.125 46.21875 C 72.683594 49.652344 85.265625 67.171875 81.527344 75.035156 C 79.464844 79.375 77.15625 85.546875 75.558594 89.835938 C 81.421875 87.839844 82.621094 85.800781 83.101562 84.757812 C 83.917969 82.996094 86.773438 51.710938 83.101562 41.6875 "/><path style=" stroke:none;fill-rule:nonzero;fill:#a0779f;fill-opacity:1;" d="M 55.578125 93.554688 C 55.574219 93.554688 55.574219 93.554688 55.566406 93.554688 C 55.570312 93.554688 55.574219 93.554688 55.578125 93.554688 M 55.644531 93.546875 C 55.636719 93.546875 55.632812 93.546875 55.628906 93.550781 C 55.632812 93.546875 55.636719 93.546875 55.644531 93.546875 M 55.707031 93.539062 C 55.703125 93.542969 55.695312 93.542969 55.691406 93.542969 C 55.695312 93.542969 55.703125 93.542969 55.707031 93.539062 M 55.773438 93.535156 C 55.761719 93.535156 55.75 93.535156 55.738281 93.539062 C 55.75 93.535156 55.761719 93.535156 55.773438 93.535156 M 55.828125 93.527344 C 55.820312 93.527344 55.8125 93.53125 55.804688 93.53125 C 55.8125 93.53125 55.820312 93.527344 55.828125 93.527344 M 55.894531 93.519531 C 55.886719 93.523438 55.875 93.523438 55.863281 93.523438 C 55.875 93.523438 55.886719 93.523438 55.894531 93.519531 M 56.066406 93.503906 C 56.015625 93.507812 55.960938 93.515625 55.90625 93.519531 C 55.960938 93.515625 56.015625 93.507812 56.066406 93.503906 M 56.132812 93.496094 C 56.117188 93.496094 56.105469 93.5 56.089844 93.5 C 56.105469 93.5 56.117188 93.496094 56.132812 93.496094 M 56.203125 93.488281 C 56.1875 93.492188 56.167969 93.492188 56.152344 93.496094 C 56.171875 93.492188 56.1875 93.492188 56.203125 93.488281 M 80.011719 87.863281 C 76.804688 89.785156 70.207031 92.011719 56.210938 93.488281 C 70.214844 92.011719 76.804688 89.785156 80.011719 87.863281 "/><path style=" stroke:none;fill-rule:nonzero;fill:#f59595;fill-opacity:1;" d="M 55.441406 93.566406 C 55.425781 93.570312 55.410156 93.570312 55.394531 93.574219 C 55.410156 93.570312 55.425781 93.570312 55.441406 93.566406 M 15.300781 88.019531 C 15.300781 88.019531 15.300781 88.019531 15.300781 88.023438 C 15.300781 88.019531 15.300781 88.019531 15.300781 88.019531 M 15.296875 88.015625 C 15.296875 88.015625 15.296875 88.015625 15.296875 88.019531 C 15.296875 88.015625 15.296875 88.015625 15.296875 88.015625 M 15.292969 88.011719 C 15.292969 88.011719 15.292969 88.011719 15.296875 88.015625 C 15.292969 88.011719 15.292969 88.011719 15.292969 88.011719 M 81.1875 87.066406 C 80.085938 87.925781 78.351562 88.882812 75.558594 89.835938 C 75.832031 89.101562 76.125 88.316406 76.433594 87.492188 C 75.03125 87.785156 73.542969 88.027344 71.988281 88.222656 C 71.890625 88.480469 71.796875 88.734375 71.707031 88.980469 C 71.429688 89.730469 71.144531 90.488281 70.894531 91.152344 C 67.109375 92.046875 62.136719 92.882812 55.558594 93.554688 C 55.558594 93.554688 55.566406 93.554688 55.566406 93.554688 C 55.574219 93.554688 55.574219 93.554688 55.578125 93.554688 C 55.59375 93.550781 55.609375 93.550781 55.628906 93.550781 C 55.632812 93.546875 55.636719 93.546875 55.644531 93.546875 C 55.660156 93.546875 55.675781 93.542969 55.691406 93.542969 C 55.695312 93.542969 55.703125 93.539062 55.707031 93.539062 C 55.71875 93.539062 55.726562 93.539062 55.738281 93.535156 C 55.75 93.535156 55.761719 93.535156 55.773438 93.535156 C 55.78125 93.53125 55.792969 93.53125 55.804688 93.53125 C 55.8125 93.53125 55.820312 93.527344 55.828125 93.527344 C 55.839844 93.527344 55.851562 93.523438 55.863281 93.523438 C 55.875 93.523438 55.886719 93.519531 55.894531 93.519531 C 55.898438 93.519531 55.902344 93.519531 55.90625 93.519531 C 55.960938 93.511719 56.015625 93.507812 56.066406 93.503906 C 56.074219 93.5 56.082031 93.5 56.089844 93.5 C 56.105469 93.5 56.117188 93.496094 56.132812 93.496094 C 56.136719 93.496094 56.148438 93.496094 56.152344 93.492188 C 56.167969 93.492188 56.1875 93.488281 56.203125 93.488281 C 56.207031 93.488281 56.210938 93.488281 56.210938 93.488281 C 70.207031 92.011719 76.804688 89.78125 80.011719 87.863281 C 80.46875 87.589844 80.859375 87.324219 81.1875 87.066406 M 81.195312 87.0625 C 81.195312 87.0625 81.191406 87.0625 81.191406 87.0625 C 81.191406 87.0625 81.195312 87.0625 81.195312 87.0625 M 28.910156 81.175781 C 27.335938 85.207031 25.3125 88.980469 23.789062 91.523438 C 18.890625 90.191406 15.957031 88.707031 15.304688 88.023438 C 16.628906 89.414062 27.328125 94.109375 44.90625 94.109375 C 48.164062 94.109375 51.65625 93.949219 55.375 93.574219 C 52.605469 93.851562 49.96875 94.007812 47.453125 94.074219 C 48.609375 92.347656 49.976562 90.289062 51.394531 88.09375 C 49.964844 87.917969 48.542969 87.710938 47.140625 87.46875 C 45.546875 89.90625 44.011719 92.199219 42.734375 94.082031 C 36.882812 93.953125 31.867188 93.304688 27.773438 92.46875 C 28.386719 91.40625 29.101562 90.105469 29.855469 88.617188 C 30.671875 86.996094 31.550781 85.109375 32.359375 83.085938 C 31.117188 82.496094 29.960938 81.859375 28.910156 81.175781 M 28.574219 52.414062 C 27.808594 52.773438 26.988281 52.984375 26.125 52.984375 C 25.65625 52.984375 25.175781 52.921875 24.683594 52.789062 C 24.457031 52.726562 24.238281 52.65625 24.03125 52.578125 C 24.902344 53.894531 25.832031 55.375 26.722656 56.957031 C 27.21875 56.886719 27.738281 56.851562 28.277344 56.851562 C 29.214844 56.851562 30.210938 56.953125 31.25 57.132812 C 30.394531 55.464844 29.476562 53.871094 28.574219 52.414062 M 48.46875 51.28125 C 48.382812 51.355469 48.285156 51.4375 48.179688 51.53125 C 47.386719 52.230469 46.402344 52.835938 45.316406 52.992188 C 45.082031 53.027344 44.839844 53.046875 44.601562 53.050781 C 44.839844 53.269531 45.097656 53.5 45.371094 53.746094 C 46.222656 54.511719 47.40625 55.578125 48.703125 56.800781 C 50.316406 56.628906 51.984375 56.425781 53.695312 56.199219 C 52.058594 54.5625 50.277344 52.914062 48.46875 51.28125 M 67.539062 48.816406 C 67.472656 48.894531 67.414062 48.972656 67.359375 49.046875 C 68.367188 50.421875 69.410156 51.941406 70.4375 53.53125 C 70.890625 53.449219 71.34375 53.367188 71.796875 53.28125 C 72.792969 53.101562 73.722656 52.914062 74.589844 52.730469 C 73.953125 51.722656 73.332031 50.785156 72.761719 49.941406 C 72.734375 49.972656 72.703125 50.007812 72.671875 50.042969 C 72.507812 50.214844 72.277344 50.386719 71.761719 50.386719 C 71.707031 50.386719 71.648438 50.386719 71.585938 50.382812 C 70.109375 50.28125 68.757812 49.597656 67.539062 48.816406 "/><path style=" stroke:none;fill-rule:nonzero;fill:#f15e4b;fill-opacity:1;" d="M 51.398438 88.09375 C 49.976562 90.289062 48.613281 92.347656 47.453125 94.074219 C 49.96875 94.011719 52.605469 93.851562 55.375 93.574219 C 55.378906 93.574219 55.386719 93.574219 55.394531 93.574219 C 55.410156 93.570312 55.425781 93.570312 55.441406 93.566406 C 55.464844 93.566406 55.488281 93.5625 55.515625 93.5625 C 55.527344 93.558594 55.542969 93.558594 55.558594 93.554688 C 62.136719 92.882812 67.109375 92.046875 70.894531 91.152344 C 71.144531 90.488281 71.429688 89.730469 71.707031 88.980469 C 71.796875 88.734375 71.890625 88.480469 71.988281 88.222656 C 69.027344 88.589844 65.832031 88.773438 62.542969 88.773438 C 58.882812 88.773438 55.105469 88.546875 51.398438 88.09375 M 82.613281 85.613281 C 80.84375 86.378906 78.753906 87.003906 76.433594 87.492188 C 76.125 88.3125 75.832031 89.101562 75.558594 89.835938 C 78.351562 88.882812 80.085938 87.925781 81.1875 87.066406 C 81.191406 87.0625 81.191406 87.0625 81.191406 87.0625 C 81.191406 87.0625 81.195312 87.0625 81.195312 87.0625 C 81.875 86.53125 82.316406 86.039062 82.613281 85.613281 M 32.359375 83.085938 C 31.550781 85.109375 30.671875 86.996094 29.855469 88.617188 C 29.101562 90.105469 28.386719 91.40625 27.773438 92.46875 C 31.867188 93.304688 36.882812 93.953125 42.734375 94.082031 C 44.011719 92.199219 45.546875 89.90625 47.140625 87.46875 C 41.660156 86.519531 36.515625 85.058594 32.359375 83.085938 M 31.796875 49.769531 C 30.90625 50.855469 29.8125 51.828125 28.574219 52.414062 C 29.476562 53.871094 30.394531 55.464844 31.25 57.132812 C 32.867188 57.414062 34.855469 57.542969 37.136719 57.542969 C 40.445312 57.542969 44.371094 57.273438 48.703125 56.800781 C 47.40625 55.578125 46.222656 54.511719 45.371094 53.746094 C 45.097656 53.5 44.839844 53.269531 44.601562 53.050781 C 44.558594 53.050781 44.511719 53.054688 44.46875 53.054688 C 42.828125 53.054688 41.175781 52.378906 40.292969 51.039062 C 39.316406 52.289062 37.984375 53.28125 36.441406 53.28125 C 36.179688 53.28125 35.910156 53.253906 35.632812 53.191406 C 33.375 52.679688 33.234375 51.191406 31.796875 49.769531 M 67.359375 49.046875 C 66.664062 50.007812 66.558594 50.820312 65.289062 51.472656 C 64.320312 51.96875 63.242188 52.316406 62.136719 52.316406 C 61.890625 52.316406 61.644531 52.300781 61.398438 52.261719 C 60.519531 52.136719 59.257812 51.320312 58.367188 51.320312 C 58.3125 51.320312 58.261719 51.320312 58.210938 51.328125 C 57.476562 51.417969 56.832031 52.445312 56.125 52.78125 C 55.457031 53.101562 54.757812 53.246094 54.066406 53.246094 C 52.617188 53.246094 51.195312 52.601562 50.136719 51.550781 C 49.667969 51.082031 49.433594 50.851562 49.191406 50.851562 C 48.996094 50.851562 48.796875 50.996094 48.46875 51.28125 C 50.277344 52.914062 52.058594 54.5625 53.695312 56.199219 C 58.964844 55.5 64.652344 54.574219 70.4375 53.53125 C 69.410156 51.941406 68.367188 50.421875 67.359375 49.046875 M 84.257812 46.820312 C 83.09375 47.867188 81.660156 48.089844 80.648438 48.089844 C 79.886719 48.089844 79.363281 47.964844 79.363281 47.964844 C 79.363281 47.964844 78.976562 50.5 76.378906 50.5 C 75.675781 50.5 74.8125 50.316406 73.753906 49.847656 C 73.511719 49.738281 73.339844 49.695312 73.207031 49.695312 C 72.992188 49.695312 72.882812 49.808594 72.761719 49.941406 C 73.332031 50.785156 73.949219 51.722656 74.585938 52.730469 C 79.929688 51.589844 82.90625 50.417969 84.550781 49.410156 C 84.46875 48.507812 84.371094 47.640625 84.257812 46.820312 M 13.039062 45.589844 C 12.898438 45.59375 12.753906 45.597656 12.605469 45.597656 C 12.539062 45.597656 12.472656 45.597656 12.402344 45.59375 C 12.324219 46.953125 12.132812 50.839844 12.132812 55.816406 C 12.132812 58.925781 12.207031 62.460938 12.433594 66.066406 C 13.113281 76.902344 13.792969 86.382812 15.289062 88.007812 C 15.289062 88.007812 15.289062 88.007812 15.292969 88.011719 C 15.292969 88.011719 15.292969 88.011719 15.296875 88.015625 C 15.296875 88.015625 15.296875 88.015625 15.296875 88.019531 C 15.296875 88.019531 15.296875 88.019531 15.300781 88.019531 C 15.300781 88.019531 15.300781 88.023438 15.300781 88.023438 C 15.300781 88.023438 15.300781 88.023438 15.304688 88.023438 C 15.957031 88.707031 18.886719 90.191406 23.789062 91.523438 C 25.3125 88.980469 27.335938 85.207031 28.910156 81.175781 C 25.90625 79.222656 23.777344 76.898438 22.933594 74.203125 C 19.164062 62.167969 21.703125 57.667969 26.722656 56.957031 C 25.832031 55.375 24.902344 53.894531 24.03125 52.578125 C 21.917969 51.792969 20.636719 50.21875 20.289062 47.878906 C 19.570312 48.453125 19.351562 49.222656 18.429688 49.617188 C 17.914062 49.839844 17.292969 49.953125 16.679688 49.953125 C 16.28125 49.953125 15.886719 49.90625 15.53125 49.808594 C 13.355469 49.226562 13.253906 47.398438 13.039062 45.589844 "/><g clip-rule="nonzero" clip-path="url(#db1e8ae9a5)"><path style=" stroke:none;fill-rule:nonzero;fill:#ffffff;fill-opacity:1;" d="M 12.523438 38.78125 C 11.566406 37.828125 10.3125 37.082031 11.457031 35.625 C 12.265625 34.597656 13.660156 34.851562 14.65625 35.148438 C 13.800781 33.460938 14.136719 31.707031 15.957031 30.730469 C 16.785156 30.285156 17.953125 30.070312 18.878906 30.222656 C 19.507812 30.332031 20.960938 30.402344 21.339844 30.929688 C 20.421875 29.621094 21.441406 28.65625 22.761719 28.230469 C 23.996094 27.832031 25.414062 28.121094 26.464844 28.855469 C 26.039062 25.335938 32.617188 23.886719 34.203125 26.667969 C 34.285156 25.550781 35.261719 24.894531 36.359375 24.734375 C 37.609375 24.550781 38.234375 25.167969 39.226562 25.664062 C 39.789062 24.875 39.847656 24.453125 40.855469 23.992188 C 41.832031 23.542969 42.566406 23.273438 43.652344 23.40625 C 45.445312 23.621094 46.515625 24.105469 47.792969 25.414062 C 48.773438 23.617188 50.34375 23.824219 51.78125 24.726562 C 52.714844 25.3125 52.339844 25.316406 53.421875 24.691406 C 54.054688 24.328125 54.863281 23.996094 55.566406 23.855469 C 57.945312 23.378906 62.390625 23.652344 63.167969 26.308594 C 64.164062 25.214844 65.429688 25.242188 66.914062 25.472656 C 68.515625 25.722656 69.058594 26.886719 69.90625 28.179688 C 71.128906 26.914062 73.449219 26.664062 74.988281 27.289062 C 76.957031 28.082031 77.953125 29.734375 78.765625 31.585938 C 81.515625 31.425781 83.695312 31.703125 84.8125 34.671875 C 84.8125 34.671875 88.792969 35.769531 88.679688 38.746094 C 88.570312 41.722656 84.53125 42.253906 84.53125 42.253906 C 84.53125 42.253906 86.402344 44.761719 84.367188 46.71875 C 82.328125 48.675781 79.363281 47.964844 79.363281 47.964844 C 79.363281 47.964844 78.738281 52.058594 73.753906 49.847656 C 73.027344 49.523438 72.917969 49.785156 72.671875 50.042969 C 72.488281 50.234375 72.226562 50.425781 71.585938 50.382812 C 70.109375 50.28125 68.757812 49.597656 67.539062 48.816406 C 66.671875 49.875 66.660156 50.765625 65.289062 51.472656 C 64.105469 52.082031 62.765625 52.460938 61.398438 52.261719 C 60.464844 52.128906 59.105469 51.21875 58.210938 51.328125 C 57.476562 51.417969 56.832031 52.445312 56.125 52.78125 C 54.050781 53.769531 51.699219 53.101562 50.136719 51.550781 C 49.199219 50.617188 49.207031 50.628906 48.179688 51.53125 C 47.386719 52.230469 46.402344 52.835938 45.316406 52.992188 C 43.421875 53.265625 41.328125 52.613281 40.292969 51.039062 C 39.148438 52.503906 37.515625 53.617188 35.632812 53.191406 C 33.375 52.679688 33.234375 51.191406 31.796875 49.769531 C 30.058594 51.894531 27.542969 53.578125 24.683594 52.789062 C 22.179688 52.09375 20.667969 50.453125 20.289062 47.878906 C 19.570312 48.453125 19.351562 49.21875 18.429688 49.617188 C 17.578125 49.984375 16.433594 50.050781 15.53125 49.808594 C 13.355469 49.226562 13.253906 47.398438 13.039062 45.589844 C 11.011719 45.640625 7.40625 45.40625 7.589844 42.460938 C 7.726562 40.28125 10.242188 39.363281 11.855469 38.484375 L 12.523438 38.78125 "/></g><g clip-rule="nonzero" clip-path="url(#31d2159b78)"><path style="fill:none;stroke-width:1.899;stroke-linecap:butt;stroke-linejoin:miter;stroke:#a5a7aa;stroke-opacity:1;stroke-miterlimit:10;" d="M 136.662018 167.88272 C 133.30307 164.525932 128.902161 161.898283 132.91919 156.7668 C 135.757159 153.148624 140.651627 154.04285 144.147675 155.088407 C 141.145187 149.145242 142.324246 142.968203 148.713104 139.528871 C 151.619622 137.960536 155.718911 137.203883 158.96818 137.740419 C 161.175489 138.125624 166.275607 138.373256 167.605476 140.230495 C 164.383628 135.621791 167.961936 132.223732 172.595914 130.724183 C 176.928273 129.320936 181.905001 130.338978 185.59299 132.925355 C 184.0986 120.530005 207.186231 115.426037 212.752489 125.221253 C 213.040399 121.286658 216.467898 118.975427 220.320406 118.411377 C 224.707605 117.764782 226.901204 119.93844 230.383542 121.68562 C 232.357782 118.90664 232.563432 117.420849 236.10061 115.797485 C 239.528109 114.215392 242.105588 113.266137 245.916966 113.733886 C 252.209854 114.490539 255.966393 116.196447 260.449561 120.805151 C 263.89077 114.476781 269.402187 115.20592 274.447466 118.383862 C 277.724154 120.447461 276.407995 120.461218 280.205663 118.260046 C 282.426682 116.980615 285.264651 115.811242 287.73245 115.315978 C 296.081837 113.637585 311.683811 114.600597 314.4121 123.955579 C 317.908149 120.103528 322.350187 120.199829 327.559985 121.011511 C 333.181083 121.89198 335.086772 125.991663 338.061841 130.545338 C 342.35307 126.087964 350.496806 125.207495 355.898544 127.408668 C 362.808382 130.201405 366.30443 136.020753 369.156109 142.541726 C 378.807946 141.977675 386.458123 142.954446 390.379181 153.410013 C 390.379181 153.410013 404.349666 157.275821 403.952076 167.758904 C 403.568196 178.241986 389.392062 180.112982 389.392062 180.112982 C 389.392062 180.112982 395.959149 188.945185 388.816242 195.837605 C 381.659625 202.730025 371.253738 200.226192 371.253738 200.226192 C 371.253738 200.226192 369.060139 214.643869 351.566186 206.857223 C 349.016127 205.715365 348.632247 206.637106 347.768517 207.545089 C 347.124148 208.219198 346.205578 208.893307 343.957139 208.741977 C 338.774761 208.384286 334.031103 205.976754 329.753584 203.225289 C 326.709966 206.953524 326.668836 210.090195 321.856627 212.58027 C 317.702499 214.726413 312.999971 216.060874 308.201473 215.35925 C 304.924784 214.891501 300.153706 211.686044 297.014117 212.071249 C 294.436638 212.387668 292.174489 216.005845 289.69298 217.188975 C 282.412972 220.669578 274.159556 218.317075 268.675558 212.855417 C 265.385159 209.567416 265.412579 209.608688 261.80685 212.78663 C 259.023721 215.249192 255.568803 217.381577 251.757424 217.93187 C 245.108077 218.894883 237.75952 216.59741 234.126371 211.053207 C 230.109342 216.212204 224.378565 220.133042 217.770347 218.633494 C 209.84597 216.831284 209.35241 211.589743 204.307132 206.582076 C 198.206185 214.066062 189.376948 219.995469 179.341232 217.216489 C 170.553125 214.767685 165.247357 208.989608 163.917488 199.923531 C 161.394849 201.945858 160.627089 204.642294 157.39153 206.045541 C 154.402751 207.338729 150.385723 207.572604 147.218714 206.71965 C 139.582247 204.669808 139.225787 198.23138 138.471738 191.861738 C 131.35625 192.040583 118.701925 191.215144 119.346295 180.84212 C 119.826145 173.165533 128.655381 169.932561 134.317609 166.837163 L 136.662018 167.88272 " transform="matrix(0.28492,0,0,0.28394,-26.414288,-8.887308)"/></g><g clip-rule="nonzero" clip-path="url(#6fa4605438)"><path style=" stroke:none;fill-rule:nonzero;fill:#d8d8d4;fill-opacity:1;" d="M 88.679688 38.746094 C 88.722656 37.582031 88.140625 36.710938 87.417969 36.074219 C 86.464844 37.984375 83.628906 38.367188 83.628906 38.367188 C 83.628906 38.367188 85.476562 40.875 83.460938 42.832031 C 81.449219 44.792969 78.519531 44.082031 78.519531 44.082031 C 78.519531 44.082031 77.898438 48.175781 72.972656 45.964844 C 71.726562 45.40625 72.324219 46.605469 70.832031 46.503906 C 69.371094 46.402344 68.039062 45.71875 66.832031 44.9375 C 65.976562 46 65.964844 46.886719 64.609375 47.59375 C 63.441406 48.203125 62.113281 48.585938 60.761719 48.386719 C 59.839844 48.253906 58.496094 47.34375 57.613281 47.453125 C 56.886719 47.542969 56.25 48.570312 55.550781 48.910156 C 53.5 49.898438 51.175781 49.226562 49.636719 47.679688 C 48.710938 46.75 48.714844 46.757812 47.699219 47.660156 C 46.914062 48.363281 45.941406 48.964844 44.867188 49.125 C 42.996094 49.398438 40.929688 48.746094 39.90625 47.171875 C 38.773438 48.636719 37.160156 49.75 35.300781 49.328125 C 33.070312 48.816406 32.929688 47.328125 31.507812 45.90625 C 29.789062 48.03125 27.304688 49.71875 24.476562 48.925781 C 22.003906 48.238281 20.511719 46.59375 20.136719 44.019531 C 19.425781 44.59375 19.210938 45.363281 18.300781 45.761719 C 17.457031 46.128906 16.324219 46.195312 15.4375 45.953125 C 13.285156 45.371094 13.183594 43.542969 12.972656 41.738281 C 11.609375 41.769531 9.519531 41.671875 8.386719 40.675781 C 7.941406 41.164062 7.636719 41.742188 7.589844 42.460938 C 7.40625 45.40625 11.011719 45.640625 13.039062 45.589844 C 13.253906 47.398438 13.355469 49.226562 15.53125 49.808594 C 16.433594 50.050781 17.578125 49.984375 18.429688 49.617188 C 19.351562 49.21875 19.570312 48.449219 20.289062 47.878906 C 20.667969 50.449219 22.179688 52.09375 24.683594 52.785156 C 27.542969 53.578125 30.054688 51.894531 31.796875 49.769531 C 33.234375 51.1875 33.375 52.679688 35.632812 53.191406 C 37.515625 53.613281 39.148438 52.5 40.292969 51.039062 C 41.328125 52.613281 43.421875 53.265625 45.316406 52.992188 C 46.402344 52.832031 47.386719 52.230469 48.179688 51.53125 C 49.207031 50.628906 49.199219 50.617188 50.136719 51.550781 C 51.699219 53.097656 54.050781 53.769531 56.125 52.78125 C 56.832031 52.445312 57.476562 51.417969 58.210938 51.328125 C 59.105469 51.21875 60.464844 52.125 61.398438 52.261719 C 62.765625 52.460938 64.105469 52.078125 65.289062 51.46875 C 66.660156 50.765625 66.671875 49.875 67.539062 48.8125 C 68.757812 49.597656 70.109375 50.28125 71.585938 50.382812 C 73.097656 50.484375 72.492188 49.285156 73.753906 49.84375 C 78.738281 52.058594 79.363281 47.964844 79.363281 47.964844 C 79.363281 47.964844 82.328125 48.675781 84.367188 46.71875 C 86.402344 44.761719 84.53125 42.25 84.53125 42.25 C 84.53125 42.25 88.570312 41.722656 88.679688 38.746094 Z M 88.679688 38.746094 "/></g><path style=" stroke:none;fill-rule:nonzero;fill:#d8d8d4;fill-opacity:1;" d="M 18.777344 39.59375 C 18.777344 39.8125 18.699219 40.003906 18.542969 40.160156 C 18.386719 40.316406 18.195312 40.394531 17.972656 40.394531 C 17.75 40.394531 17.5625 40.316406 17.40625 40.160156 C 17.25 40.003906 17.171875 39.8125 17.171875 39.59375 C 17.171875 39.371094 17.25 39.183594 17.40625 39.027344 C 17.5625 38.871094 17.75 38.792969 17.972656 38.792969 C 18.195312 38.792969 18.386719 38.871094 18.542969 39.027344 C 18.699219 39.183594 18.777344 39.371094 18.777344 39.59375 Z M 18.777344 39.59375 "/><path style=" stroke:none;fill-rule:nonzero;fill:#d8d8d4;fill-opacity:1;" d="M 24.925781 35.695312 C 24.925781 35.957031 24.875 36.210938 24.773438 36.453125 C 24.671875 36.695312 24.527344 36.910156 24.339844 37.097656 C 24.15625 37.28125 23.9375 37.425781 23.695312 37.527344 C 23.453125 37.628906 23.199219 37.679688 22.933594 37.679688 C 22.667969 37.679688 22.414062 37.628906 22.171875 37.527344 C 21.929688 37.425781 21.710938 37.28125 21.527344 37.097656 C 21.339844 36.910156 21.195312 36.695312 21.09375 36.453125 C 20.992188 36.210938 20.941406 35.957031 20.941406 35.695312 C 20.941406 35.429688 20.992188 35.179688 21.09375 34.933594 C 21.195312 34.691406 21.339844 34.476562 21.527344 34.292969 C 21.710938 34.105469 21.929688 33.960938 22.171875 33.859375 C 22.414062 33.761719 22.667969 33.710938 22.933594 33.710938 C 23.199219 33.710938 23.453125 33.761719 23.695312 33.859375 C 23.9375 33.960938 24.15625 34.105469 24.339844 34.292969 C 24.527344 34.476562 24.671875 34.691406 24.773438 34.933594 C 24.875 35.179688 24.925781 35.429688 24.925781 35.695312 Z M 24.925781 35.695312 "/><path style=" stroke:none;fill-rule:nonzero;fill:#d8d8d4;fill-opacity:1;" d="M 27.996094 40.320312 C 27.996094 40.464844 27.945312 40.589844 27.84375 40.691406 C 27.742188 40.792969 27.621094 40.84375 27.476562 40.84375 C 27.332031 40.84375 27.207031 40.792969 27.105469 40.691406 C 27.003906 40.589844 26.953125 40.464844 26.953125 40.320312 C 26.953125 40.179688 27.003906 40.054688 27.105469 39.953125 C 27.207031 39.851562 27.332031 39.800781 27.476562 39.800781 C 27.621094 39.800781 27.742188 39.851562 27.84375 39.953125 C 27.945312 40.054688 27.996094 40.179688 27.996094 40.320312 Z M 27.996094 40.320312 "/><path style=" stroke:none;fill-rule:nonzero;fill:#d8d8d4;fill-opacity:1;" d="M 42.039062 42.167969 C 42.039062 42.332031 41.980469 42.472656 41.863281 42.585938 C 41.75 42.703125 41.609375 42.757812 41.445312 42.757812 C 41.28125 42.757812 41.140625 42.703125 41.023438 42.585938 C 40.910156 42.472656 40.851562 42.332031 40.851562 42.167969 C 40.851562 42.003906 40.910156 41.867188 41.023438 41.75 C 41.140625 41.632812 41.28125 41.578125 41.445312 41.578125 C 41.609375 41.578125 41.75 41.632812 41.863281 41.75 C 41.980469 41.867188 42.039062 42.003906 42.039062 42.167969 Z M 42.039062 42.167969 "/><path style=" stroke:none;fill-rule:nonzero;fill:#d8d8d4;fill-opacity:1;" d="M 58.316406 43.488281 C 58.316406 43.625 58.289062 43.753906 58.238281 43.875 C 58.1875 44 58.113281 44.109375 58.019531 44.203125 C 57.925781 44.296875 57.816406 44.371094 57.691406 44.421875 C 57.566406 44.472656 57.4375 44.5 57.304688 44.5 C 57.167969 44.5 57.039062 44.472656 56.917969 44.421875 C 56.792969 44.371094 56.683594 44.296875 56.585938 44.203125 C 56.492188 44.109375 56.417969 44 56.367188 43.875 C 56.316406 43.753906 56.292969 43.625 56.292969 43.488281 C 56.292969 43.355469 56.316406 43.226562 56.367188 43.105469 C 56.417969 42.980469 56.492188 42.871094 56.585938 42.777344 C 56.683594 42.683594 56.792969 42.609375 56.917969 42.558594 C 57.039062 42.507812 57.167969 42.480469 57.304688 42.480469 C 57.4375 42.480469 57.566406 42.507812 57.691406 42.558594 C 57.816406 42.609375 57.925781 42.683594 58.019531 42.777344 C 58.113281 42.871094 58.1875 42.980469 58.238281 43.105469 C 58.289062 43.226562 58.316406 43.355469 58.316406 43.488281 Z M 58.316406 43.488281 "/><path style=" stroke:none;fill-rule:nonzero;fill:#d8d8d4;fill-opacity:1;" d="M 61.457031 40.324219 C 61.457031 40.46875 61.40625 40.589844 61.304688 40.691406 C 61.203125 40.792969 61.078125 40.84375 60.933594 40.84375 C 60.789062 40.84375 60.667969 40.792969 60.5625 40.691406 C 60.460938 40.589844 60.410156 40.46875 60.410156 40.324219 C 60.410156 40.179688 60.460938 40.054688 60.5625 39.953125 C 60.667969 39.851562 60.789062 39.800781 60.933594 39.800781 C 61.078125 39.800781 61.203125 39.851562 61.304688 39.953125 C 61.40625 40.054688 61.457031 40.179688 61.457031 40.324219 Z M 61.457031 40.324219 "/><path style=" stroke:none;fill-rule:nonzero;fill:#d8d8d4;fill-opacity:1;" d="M 69.839844 41.960938 C 69.839844 42.066406 69.804688 42.15625 69.730469 42.230469 C 69.652344 42.304688 69.5625 42.34375 69.457031 42.34375 C 69.351562 42.34375 69.261719 42.304688 69.183594 42.230469 C 69.109375 42.15625 69.074219 42.066406 69.074219 41.960938 C 69.074219 41.855469 69.109375 41.765625 69.183594 41.6875 C 69.261719 41.613281 69.351562 41.578125 69.457031 41.578125 C 69.5625 41.578125 69.652344 41.613281 69.730469 41.6875 C 69.804688 41.765625 69.839844 41.855469 69.839844 41.960938 Z M 69.839844 41.960938 "/><path style=" stroke:none;fill-rule:nonzero;fill:#d8d8d4;fill-opacity:1;" d="M 73.824219 36.285156 C 73.824219 36.449219 73.765625 36.589844 73.648438 36.703125 C 73.535156 36.820312 73.394531 36.878906 73.230469 36.878906 C 73.066406 36.878906 72.925781 36.820312 72.808594 36.703125 C 72.695312 36.589844 72.636719 36.449219 72.636719 36.285156 C 72.636719 36.121094 72.695312 35.984375 72.808594 35.867188 C 72.925781 35.75 73.066406 35.695312 73.230469 35.695312 C 73.394531 35.695312 73.535156 35.75 73.648438 35.867188 C 73.765625 35.984375 73.824219 36.121094 73.824219 36.285156 Z M 73.824219 36.285156 "/><path style=" stroke:none;fill-rule:nonzero;fill:#d8d8d4;fill-opacity:1;" d="M 74.242188 31.367188 C 74.242188 32.039062 73.695312 32.585938 73.019531 32.585938 C 72.34375 32.585938 71.796875 32.039062 71.796875 31.367188 C 71.796875 30.691406 72.34375 30.148438 73.019531 30.148438 C 73.695312 30.148438 74.242188 30.691406 74.242188 31.367188 Z M 74.242188 31.367188 "/><path style=" stroke:none;fill-rule:nonzero;fill:#d8d8d4;fill-opacity:1;" d="M 80.738281 36.179688 C 80.738281 36.316406 80.691406 36.429688 80.59375 36.527344 C 80.5 36.621094 80.382812 36.667969 80.25 36.667969 C 80.113281 36.667969 80 36.621094 79.902344 36.527344 C 79.808594 36.429688 79.761719 36.316406 79.761719 36.179688 C 79.761719 36.046875 79.808594 35.933594 79.902344 35.835938 C 80 35.742188 80.113281 35.695312 80.25 35.695312 C 80.382812 35.695312 80.5 35.742188 80.59375 35.835938 C 80.691406 35.933594 80.738281 36.046875 80.738281 36.179688 Z M 80.738281 36.179688 "/><path style=" stroke:none;fill-rule:nonzero;fill:#d8d8d4;fill-opacity:1;" d="M 35.960938 28.925781 C 35.960938 29.117188 35.894531 29.28125 35.757812 29.417969 C 35.621094 29.554688 35.457031 29.621094 35.261719 29.621094 C 35.070312 29.621094 34.90625 29.554688 34.769531 29.417969 C 34.632812 29.28125 34.5625 29.117188 34.5625 28.925781 C 34.5625 28.734375 34.632812 28.570312 34.769531 28.433594 C 34.90625 28.296875 35.070312 28.230469 35.261719 28.230469 C 35.457031 28.230469 35.621094 28.296875 35.757812 28.433594 C 35.894531 28.570312 35.960938 28.734375 35.960938 28.925781 Z M 35.960938 28.925781 "/><path style=" stroke:none;fill-rule:nonzero;fill:#d8d8d4;fill-opacity:1;" d="M 58.160156 26.105469 C 58.160156 26.339844 57.96875 26.53125 57.734375 26.53125 C 57.5 26.53125 57.308594 26.339844 57.308594 26.105469 C 57.308594 25.871094 57.5 25.679688 57.734375 25.679688 C 57.96875 25.679688 58.160156 25.871094 58.160156 26.105469 "/><path style=" stroke:none;fill-rule:nonzero;fill:#ffffff;fill-opacity:1;" d="M 11.125 43.125 C 11.125 43.328125 10.964844 43.488281 10.761719 43.488281 C 10.558594 43.488281 10.394531 43.328125 10.394531 43.125 C 10.394531 42.921875 10.558594 42.761719 10.761719 42.761719 C 10.964844 42.761719 11.125 42.921875 11.125 43.125 Z M 11.125 43.125 "/><path style=" stroke:none;fill-rule:nonzero;fill:#ffffff;fill-opacity:1;" d="M 17.171875 48.328125 C 17.171875 48.484375 17.117188 48.613281 17.007812 48.722656 C 16.898438 48.832031 16.765625 48.886719 16.613281 48.886719 C 16.457031 48.886719 16.324219 48.832031 16.214844 48.722656 C 16.105469 48.613281 16.050781 48.484375 16.050781 48.328125 C 16.050781 48.175781 16.105469 48.042969 16.214844 47.933594 C 16.324219 47.828125 16.457031 47.773438 16.613281 47.773438 C 16.765625 47.773438 16.898438 47.828125 17.007812 47.933594 C 17.117188 48.042969 17.171875 48.175781 17.171875 48.328125 Z M 17.171875 48.328125 "/><path style=" stroke:none;fill-rule:nonzero;fill:#ffffff;fill-opacity:1;" d="M 24.925781 50.105469 C 24.925781 50.191406 24.894531 50.265625 24.832031 50.328125 C 24.769531 50.386719 24.695312 50.417969 24.609375 50.417969 C 24.523438 50.417969 24.449219 50.386719 24.386719 50.328125 C 24.324219 50.265625 24.296875 50.191406 24.296875 50.105469 C 24.296875 50.019531 24.324219 49.945312 24.386719 49.882812 C 24.449219 49.820312 24.523438 49.792969 24.609375 49.792969 C 24.695312 49.792969 24.769531 49.820312 24.832031 49.882812 C 24.894531 49.945312 24.925781 50.019531 24.925781 50.105469 Z M 24.925781 50.105469 "/><path style=" stroke:none;fill-rule:nonzero;fill:#ffffff;fill-opacity:1;" d="M 44.011719 50.84375 C 44.011719 51.046875 43.9375 51.222656 43.792969 51.367188 C 43.648438 51.511719 43.472656 51.582031 43.269531 51.582031 C 43.066406 51.582031 42.890625 51.511719 42.746094 51.367188 C 42.601562 51.222656 42.527344 51.046875 42.527344 50.84375 C 42.527344 50.640625 42.601562 50.464844 42.746094 50.320312 C 42.890625 50.175781 43.066406 50.105469 43.269531 50.105469 C 43.472656 50.105469 43.648438 50.175781 43.792969 50.320312 C 43.9375 50.464844 44.011719 50.640625 44.011719 50.84375 Z M 44.011719 50.84375 "/><path style=" stroke:none;fill-rule:nonzero;fill:#ffffff;fill-opacity:1;" d="M 59.152344 50 C 59.152344 50.117188 59.113281 50.214844 59.03125 50.296875 C 58.949219 50.378906 58.851562 50.417969 58.734375 50.417969 C 58.617188 50.417969 58.519531 50.378906 58.4375 50.296875 C 58.355469 50.214844 58.316406 50.117188 58.316406 50 C 58.316406 49.886719 58.355469 49.785156 58.4375 49.707031 C 58.519531 49.625 58.617188 49.582031 58.734375 49.582031 C 58.851562 49.582031 58.949219 49.625 59.03125 49.707031 C 59.113281 49.785156 59.152344 49.886719 59.152344 50 Z M 59.152344 50 "/><path style=" stroke:none;fill-rule:nonzero;fill:#ffffff;fill-opacity:1;" d="M 71.796875 47.667969 C 71.796875 47.753906 71.765625 47.828125 71.703125 47.890625 C 71.644531 47.949219 71.570312 47.980469 71.484375 47.980469 C 71.394531 47.980469 71.320312 47.949219 71.261719 47.890625 C 71.199219 47.828125 71.167969 47.753906 71.167969 47.667969 C 71.167969 47.582031 71.199219 47.507812 71.261719 47.445312 C 71.320312 47.386719 71.394531 47.355469 71.484375 47.355469 C 71.570312 47.355469 71.644531 47.386719 71.703125 47.445312 C 71.765625 47.507812 71.796875 47.582031 71.796875 47.667969 Z M 71.796875 47.667969 "/><path style=" stroke:none;fill-rule:nonzero;fill:#ffffff;fill-opacity:1;" d="M 81.578125 46.136719 C 81.578125 46.320312 81.511719 46.476562 81.382812 46.605469 C 81.253906 46.734375 81.097656 46.796875 80.914062 46.796875 C 80.730469 46.796875 80.574219 46.734375 80.445312 46.605469 C 80.316406 46.476562 80.25 46.320312 80.25 46.136719 C 80.25 45.953125 80.316406 45.796875 80.445312 45.667969 C 80.574219 45.539062 80.730469 45.476562 80.914062 45.476562 C 81.097656 45.476562 81.253906 45.539062 81.382812 45.667969 C 81.511719 45.796875 81.578125 45.953125 81.578125 46.136719 Z M 81.578125 46.136719 "/><path style=" stroke:none;fill-rule:nonzero;fill:#ffffff;fill-opacity:1;" d="M 86.449219 39.097656 C 86.449219 39.179688 86.417969 39.25 86.359375 39.3125 C 86.296875 39.371094 86.226562 39.398438 86.144531 39.398438 C 86.058594 39.398438 85.988281 39.371094 85.925781 39.3125 C 85.867188 39.25 85.839844 39.179688 85.839844 39.097656 C 85.839844 39.011719 85.867188 38.941406 85.925781 38.882812 C 85.988281 38.820312 86.058594 38.792969 86.144531 38.792969 C 86.226562 38.792969 86.296875 38.820312 86.359375 38.882812 C 86.417969 38.941406 86.449219 39.011719 86.449219 39.097656 Z M 86.449219 39.097656 "/><path style=" stroke:none;fill-rule:nonzero;fill:#faccc7;fill-opacity:1;" d="M 75.992188 55.019531 C 74.070312 55.410156 72.226562 55.589844 72.226562 55.589844 C 72.089844 55.664062 71.96875 55.734375 71.859375 55.804688 C 72.359375 56.628906 72.847656 57.460938 73.320312 58.296875 C 74.140625 58.773438 74.996094 59.363281 75.519531 60.199219 C 75.902344 60.816406 76.03125 62.058594 76.03125 63.59375 C 77.152344 66.074219 77.953125 68.378906 78.230469 70.246094 C 78.800781 67.335938 79.261719 64.027344 79.585938 61.851562 C 78.53125 59.5 77.261719 57.160156 75.992188 55.019531 "/><path style=" stroke:none;fill-rule:nonzero;fill:#f48567;fill-opacity:1;" d="M 76.03125 63.59375 C 76.023438 68.5 74.679688 76.402344 75.914062 76.402344 C 75.9375 76.402344 75.960938 76.398438 75.988281 76.390625 C 76.84375 76.191406 77.605469 73.460938 78.230469 70.246094 C 77.953125 68.378906 77.152344 66.074219 76.03125 63.59375 M 71.859375 55.804688 C 70.210938 56.859375 71.6875 57.347656 73.320312 58.296875 C 72.847656 57.460938 72.359375 56.628906 71.859375 55.804688 M 76.878906 54.90625 C 76.664062 54.90625 76.4375 54.929688 76.199219 54.980469 C 76.128906 54.992188 76.0625 55.007812 75.992188 55.019531 C 77.261719 57.160156 78.53125 59.5 79.585938 61.851562 C 79.648438 61.429688 79.707031 61.050781 79.761719 60.722656 C 80.167969 58.207031 79.394531 54.90625 76.878906 54.90625 "/><path style=" stroke:none;fill-rule:nonzero;fill:#d8d8d4;fill-opacity:1;" d="M 67.410156 37.242188 C 67.410156 37.441406 67.289062 37.644531 67.050781 37.839844 C 66.808594 38.039062 66.449219 38.234375 65.976562 38.417969 C 65.5 38.605469 64.921875 38.785156 64.234375 38.953125 C 63.542969 39.121094 62.761719 39.277344 61.886719 39.417969 C 61.011719 39.5625 60.058594 39.691406 59.027344 39.800781 C 58 39.914062 56.910156 40.007812 55.765625 40.085938 C 54.621094 40.164062 53.445312 40.222656 52.230469 40.261719 C 51.015625 40.300781 49.789062 40.320312 48.546875 40.320312 C 47.308594 40.320312 46.082031 40.300781 44.867188 40.261719 C 43.652344 40.222656 42.472656 40.164062 41.332031 40.085938 C 40.1875 40.007812 39.097656 39.914062 38.070312 39.800781 C 37.039062 39.691406 36.085938 39.5625 35.210938 39.417969 C 34.335938 39.277344 33.554688 39.121094 32.863281 38.953125 C 32.175781 38.785156 31.59375 38.605469 31.121094 38.417969 C 30.648438 38.234375 30.289062 38.039062 30.046875 37.839844 C 29.808594 37.644531 29.6875 37.441406 29.6875 37.242188 C 29.6875 37.039062 29.808594 36.839844 30.046875 36.640625 C 30.289062 36.441406 30.648438 36.25 31.121094 36.0625 C 31.59375 35.875 32.175781 35.699219 32.863281 35.527344 C 33.554688 35.359375 34.335938 35.207031 35.210938 35.0625 C 36.085938 34.917969 37.039062 34.792969 38.070312 34.679688 C 39.097656 34.566406 40.1875 34.472656 41.332031 34.394531 C 42.472656 34.316406 43.652344 34.257812 44.867188 34.21875 C 46.082031 34.179688 47.308594 34.160156 48.546875 34.160156 C 49.789062 34.160156 51.015625 34.179688 52.230469 34.21875 C 53.445312 34.257812 54.621094 34.316406 55.765625 34.394531 C 56.910156 34.472656 58 34.566406 59.027344 34.679688 C 60.058594 34.792969 61.011719 34.917969 61.886719 35.0625 C 62.761719 35.207031 63.542969 35.359375 64.234375 35.527344 C 64.921875 35.699219 65.5 35.875 65.976562 36.0625 C 66.449219 36.25 66.808594 36.441406 67.050781 36.640625 C 67.289062 36.839844 67.410156 37.039062 67.410156 37.242188 Z M 67.410156 37.242188 "/><path style=" stroke:none;fill-rule:nonzero;fill:#8fc864;fill-opacity:1;" d="M 42.71875 2.8125 C 42.71875 2.8125 46.074219 5.457031 42.71875 8.800781 C 39.363281 12.144531 28.941406 12.847656 32.648438 22.179688 C 32.648438 22.179688 22.933594 28.871094 34.59375 36.261719 C 46.253906 43.65625 66.039062 38.554688 67.273438 31.6875 C 68.511719 24.820312 60.976562 22.707031 60.417969 20.59375 C 59.855469 18.480469 66.429688 20.066406 57.132812 10.03125 C 47.84375 -0.00390625 42.71875 2.8125 42.71875 2.8125 "/><path style=" stroke:none;fill-rule:nonzero;fill:#68bc45;fill-opacity:1;" d="M 39.816406 32.960938 C 28.160156 25.566406 37.875 18.875 37.875 18.875 C 36.425781 15.230469 37.136719 12.902344 38.742188 11.21875 C 34.664062 13.203125 29.972656 15.441406 32.648438 22.179688 C 32.648438 22.179688 22.933594 28.867188 34.59375 36.261719 C 44.652344 42.644531 60.75 39.714844 65.777344 34.382812 C 58.667969 37.277344 47.484375 37.824219 39.816406 32.960938 Z M 39.816406 32.960938 "/><path style=" stroke:none;fill-rule:nonzero;fill:#b0d892;fill-opacity:1;" d="M 46.40625 5.117188 C 53.035156 18.761719 46.261719 14.449219 45.394531 23.371094 C 44.789062 29.621094 51.601562 32.25 57.078125 32.25 C 59.425781 32.25 61.523438 31.769531 62.691406 30.878906 C 66.582031 27.917969 58.078125 23.214844 56.292969 21.171875 C 54.503906 19.132812 56.636719 17.46875 57.734375 15.027344 C 58.828125 12.582031 46.40625 5.117188 46.40625 5.117188 "/><path style=" stroke:none;fill-rule:nonzero;fill:#000000;fill-opacity:1;" d="M 44.5625 71.351562 C 44.5625 71.679688 44.53125 72.003906 44.464844 72.324219 C 44.402344 72.644531 44.308594 72.953125 44.183594 73.253906 C 44.058594 73.558594 43.902344 73.84375 43.722656 74.117188 C 43.539062 74.386719 43.332031 74.636719 43.101562 74.867188 C 42.871094 75.101562 42.617188 75.304688 42.34375 75.488281 C 42.074219 75.667969 41.785156 75.820312 41.480469 75.945312 C 41.179688 76.070312 40.867188 76.164062 40.546875 76.230469 C 40.226562 76.292969 39.902344 76.324219 39.574219 76.324219 C 39.246094 76.324219 38.921875 76.292969 38.597656 76.230469 C 38.277344 76.164062 37.964844 76.070312 37.664062 75.945312 C 37.359375 75.820312 37.074219 75.667969 36.800781 75.488281 C 36.527344 75.304688 36.277344 75.101562 36.042969 74.867188 C 35.8125 74.636719 35.605469 74.386719 35.425781 74.117188 C 35.242188 73.84375 35.089844 73.558594 34.960938 73.253906 C 34.835938 72.953125 34.742188 72.644531 34.679688 72.324219 C 34.613281 72.003906 34.582031 71.679688 34.582031 71.351562 C 34.582031 71.027344 34.613281 70.703125 34.679688 70.382812 C 34.742188 70.0625 34.835938 69.75 34.960938 69.449219 C 35.089844 69.148438 35.242188 68.863281 35.425781 68.589844 C 35.605469 68.320312 35.8125 68.066406 36.042969 67.835938 C 36.277344 67.605469 36.527344 67.398438 36.800781 67.21875 C 37.074219 67.035156 37.359375 66.882812 37.664062 66.757812 C 37.964844 66.632812 38.277344 66.539062 38.597656 66.476562 C 38.921875 66.410156 39.246094 66.378906 39.574219 66.378906 C 39.902344 66.378906 40.226562 66.410156 40.546875 66.476562 C 40.867188 66.539062 41.179688 66.632812 41.480469 66.757812 C 41.785156 66.882812 42.074219 67.035156 42.34375 67.21875 C 42.617188 67.398438 42.871094 67.605469 43.101562 67.835938 C 43.332031 68.066406 43.539062 68.320312 43.722656 68.589844 C 43.902344 68.863281 44.058594 69.148438 44.183594 69.449219 C 44.308594 69.75 44.402344 70.0625 44.464844 70.382812 C 44.53125 70.703125 44.5625 71.027344 44.5625 71.351562 Z M 44.5625 71.351562 "/><path style=" stroke:none;fill-rule:nonzero;fill:#ffffff;fill-opacity:1;" d="M 43.285156 70.585938 C 43.285156 70.832031 43.238281 71.066406 43.144531 71.292969 C 43.046875 71.519531 42.914062 71.722656 42.742188 71.894531 C 42.566406 72.066406 42.367188 72.203125 42.136719 72.296875 C 41.910156 72.390625 41.675781 72.4375 41.429688 72.4375 C 41.183594 72.4375 40.945312 72.390625 40.71875 72.296875 C 40.492188 72.203125 40.289062 72.066406 40.117188 71.894531 C 39.941406 71.722656 39.808594 71.519531 39.714844 71.292969 C 39.621094 71.066406 39.574219 70.832031 39.574219 70.585938 C 39.574219 70.339844 39.621094 70.105469 39.714844 69.878906 C 39.808594 69.652344 39.941406 69.453125 40.117188 69.28125 C 40.289062 69.105469 40.492188 68.972656 40.71875 68.878906 C 40.945312 68.785156 41.183594 68.738281 41.429688 68.738281 C 41.675781 68.738281 41.910156 68.785156 42.136719 68.878906 C 42.367188 68.972656 42.566406 69.105469 42.742188 69.28125 C 42.914062 69.453125 43.046875 69.652344 43.144531 69.878906 C 43.238281 70.105469 43.285156 70.339844 43.285156 70.585938 Z M 43.285156 70.585938 "/><path style=" stroke:none;fill-rule:nonzero;fill:#ffffff;fill-opacity:1;" d="M 39.742188 73.992188 C 39.742188 74.1875 39.671875 74.355469 39.53125 74.496094 C 39.390625 74.636719 39.222656 74.707031 39.023438 74.707031 C 38.824219 74.707031 38.65625 74.636719 38.515625 74.496094 C 38.375 74.355469 38.308594 74.1875 38.308594 73.992188 C 38.308594 73.792969 38.375 73.625 38.515625 73.484375 C 38.65625 73.347656 38.824219 73.277344 39.023438 73.277344 C 39.222656 73.277344 39.390625 73.347656 39.53125 73.484375 C 39.671875 73.625 39.742188 73.792969 39.742188 73.992188 Z M 39.742188 73.992188 "/><path style=" stroke:none;fill-rule:nonzero;fill:#000000;fill-opacity:1;" d="M 64.71875 71.351562 C 64.71875 71.679688 64.6875 72.003906 64.625 72.324219 C 64.558594 72.644531 64.464844 72.953125 64.339844 73.253906 C 64.214844 73.558594 64.0625 73.84375 63.878906 74.117188 C 63.695312 74.386719 63.492188 74.636719 63.257812 74.867188 C 63.027344 75.101562 62.773438 75.304688 62.503906 75.488281 C 62.230469 75.667969 61.941406 75.820312 61.640625 75.945312 C 61.335938 76.070312 61.023438 76.164062 60.703125 76.230469 C 60.382812 76.292969 60.058594 76.324219 59.730469 76.324219 C 59.402344 76.324219 59.078125 76.292969 58.757812 76.230469 C 58.4375 76.164062 58.125 76.070312 57.820312 75.945312 C 57.519531 75.820312 57.230469 75.667969 56.957031 75.488281 C 56.6875 75.304688 56.433594 75.101562 56.203125 74.867188 C 55.96875 74.636719 55.761719 74.386719 55.582031 74.117188 C 55.398438 73.84375 55.246094 73.558594 55.121094 73.253906 C 54.996094 72.953125 54.898438 72.644531 54.835938 72.324219 C 54.773438 72.003906 54.742188 71.679688 54.742188 71.351562 C 54.742188 71.027344 54.773438 70.703125 54.835938 70.382812 C 54.898438 70.0625 54.996094 69.75 55.121094 69.449219 C 55.246094 69.148438 55.398438 68.863281 55.582031 68.589844 C 55.761719 68.320312 55.96875 68.066406 56.203125 67.835938 C 56.433594 67.605469 56.6875 67.398438 56.957031 67.21875 C 57.230469 67.035156 57.519531 66.882812 57.820312 66.757812 C 58.125 66.632812 58.4375 66.539062 58.757812 66.476562 C 59.078125 66.410156 59.402344 66.378906 59.730469 66.378906 C 60.058594 66.378906 60.382812 66.410156 60.703125 66.476562 C 61.023438 66.539062 61.335938 66.632812 61.640625 66.757812 C 61.941406 66.882812 62.230469 67.035156 62.503906 67.21875 C 62.773438 67.398438 63.027344 67.605469 63.257812 67.835938 C 63.492188 68.066406 63.695312 68.320312 63.878906 68.589844 C 64.0625 68.863281 64.214844 69.148438 64.339844 69.449219 C 64.464844 69.75 64.558594 70.0625 64.625 70.382812 C 64.6875 70.703125 64.71875 71.027344 64.71875 71.351562 Z M 64.71875 71.351562 "/><path style=" stroke:none;fill-rule:nonzero;fill:#ffffff;fill-opacity:1;" d="M 63.441406 70.585938 C 63.441406 70.832031 63.394531 71.066406 63.300781 71.292969 C 63.207031 71.519531 63.070312 71.722656 62.898438 71.894531 C 62.722656 72.066406 62.523438 72.203125 62.296875 72.296875 C 62.070312 72.390625 61.832031 72.4375 61.585938 72.4375 C 61.339844 72.4375 61.101562 72.390625 60.875 72.296875 C 60.648438 72.203125 60.449219 72.066406 60.273438 71.894531 C 60.101562 71.722656 59.964844 71.519531 59.871094 71.292969 C 59.777344 71.066406 59.730469 70.832031 59.730469 70.585938 C 59.730469 70.339844 59.777344 70.105469 59.871094 69.878906 C 59.964844 69.652344 60.101562 69.453125 60.273438 69.28125 C 60.449219 69.105469 60.648438 68.972656 60.875 68.878906 C 61.101562 68.785156 61.339844 68.738281 61.585938 68.738281 C 61.832031 68.738281 62.070312 68.785156 62.296875 68.878906 C 62.523438 68.972656 62.722656 69.105469 62.898438 69.28125 C 63.070312 69.453125 63.207031 69.652344 63.300781 69.878906 C 63.394531 70.105469 63.441406 70.339844 63.441406 70.585938 Z M 63.441406 70.585938 "/><path style=" stroke:none;fill-rule:nonzero;fill:#ffffff;fill-opacity:1;" d="M 59.898438 73.992188 C 59.898438 74.1875 59.828125 74.355469 59.6875 74.496094 C 59.546875 74.636719 59.378906 74.707031 59.179688 74.707031 C 58.984375 74.707031 58.8125 74.636719 58.675781 74.496094 C 58.535156 74.355469 58.464844 74.1875 58.464844 73.992188 C 58.464844 73.792969 58.535156 73.625 58.675781 73.484375 C 58.8125 73.347656 58.984375 73.277344 59.179688 73.277344 C 59.378906 73.277344 59.546875 73.347656 59.6875 73.484375 C 59.828125 73.625 59.898438 73.792969 59.898438 73.992188 Z M 59.898438 73.992188 "/><path style=" stroke:none;fill-rule:nonzero;fill:#000000;fill-opacity:1;" d="M 46.746094 76.433594 C 46.511719 76.734375 46.382812 77.078125 46.382812 77.417969 C 46.378906 77.960938 46.730469 78.476562 47.332031 78.703125 C 47.519531 78.777344 47.714844 78.8125 47.902344 78.8125 C 48.304688 78.808594 48.679688 78.65625 48.984375 78.410156 C 49.285156 78.167969 49.519531 77.835938 49.644531 77.460938 L 49.386719 77.378906 L 49.128906 77.445312 C 49.226562 77.820312 49.40625 78.152344 49.664062 78.394531 C 49.921875 78.640625 50.261719 78.792969 50.640625 78.792969 C 50.894531 78.792969 51.15625 78.722656 51.421875 78.585938 C 51.941406 78.320312 52.1875 77.816406 52.179688 77.332031 C 52.179688 76.871094 51.984375 76.410156 51.652344 76.070312 C 51.546875 75.964844 51.375 75.964844 51.269531 76.070312 C 51.164062 76.171875 51.160156 76.34375 51.265625 76.449219 C 51.5 76.6875 51.640625 77.027344 51.640625 77.332031 C 51.632812 77.65625 51.507812 77.929688 51.171875 78.109375 C 50.972656 78.210938 50.796875 78.253906 50.640625 78.253906 C 50.40625 78.25 50.210938 78.164062 50.039062 78.003906 C 49.867188 77.839844 49.726562 77.601562 49.652344 77.308594 C 49.621094 77.195312 49.519531 77.113281 49.398438 77.109375 C 49.277344 77.105469 49.171875 77.179688 49.132812 77.292969 C 49.042969 77.5625 48.867188 77.816406 48.644531 77.992188 C 48.421875 78.167969 48.164062 78.269531 47.902344 78.269531 C 47.777344 78.269531 47.65625 78.25 47.527344 78.199219 C 47.101562 78.027344 46.929688 77.742188 46.925781 77.414062 C 46.925781 77.210938 47 76.984375 47.171875 76.765625 C 47.265625 76.648438 47.242188 76.480469 47.125 76.390625 C 47.007812 76.296875 46.839844 76.320312 46.746094 76.433594 Z M 46.746094 76.433594 "/></g></svg>